<?xml version="1.0" encoding="utf-8"?>
<!-- Generator: Adobe Illustrator 26.0.3, SVG Export Plug-In . SVG Version: 6.00 Build 0)  -->
<svg version="1.0"
	 id="svg2" inkscape:version="1.0.1 (3bc2e813f5, 2020-09-07)" xmlns:cc="http://creativecommons.org/ns#" xmlns:dc="http://purl.org/dc/elements/1.1/" xmlns:inkscape="http://www.inkscape.org/namespaces/inkscape" xmlns:rdf="http://www.w3.org/1999/02/22-rdf-syntax-ns#" xmlns:sodipodi="http://sodipodi.sourceforge.net/DTD/sodipodi-0.dtd" xmlns:svg="http://www.w3.org/2000/svg"
	 xmlns="http://www.w3.org/2000/svg" xmlns:xlink="http://www.w3.org/1999/xlink" x="0px" y="0px" viewBox="0 0 821.3 586.7"
	 style="enable-background:new 0 0 821.3 586.7;" xml:space="preserve">
<g id="g10" inkscape:groupmode="layer" inkscape:label="Image">
	<path id="path837" sodipodi:nodetypes="ssscssssssssssssssssss" d="M389.5,106.4l-181,354.4c-12.6,24.7,9.9,52.9,48.1,29.5
		l154.1-94.2l154.7,94.3c33.9,20.7,60.8-3.8,47.7-29.4L431.7,106.4C419,81.5,402.4,81.2,389.5,106.4L389.5,106.4z M416.8,145.3
		l79.5,155c2.6,5,2.6,5-2.5,8.2L257.9,452c-7.7,4.7-10.6,1.4-5.8-8l152.1-298.7C410.5,133,410.5,133,416.8,145.3z M508.9,336.2
		c3-1.8,4.4-0.2,5.3,1.5l56,106.4c5.9,11.2,0.9,11.1-4.2,8l-115.4-70.8c-7.5-4.6-7.5-4.6,2.9-10.9L508.9,336.2z"/>
</g>
</svg>
